Coordinates
version=1
nRows=12
nColumns=28
inDegrees=yes

Units are S.I. units (second, meters, Newtons, ...)
Angles are in degrees.

endheader
time	pelvis_tilt	pelvis_list	pelvis_rotation	pelvis_tx	pelvis_ty	pelvis_tz	hip_flexion_r	hip_adduction_r	hip_rotation_r	knee_angle_r	ankle_angle_r	subtalar_angle_r	mtp_angle_r	hip_flexion_l	hip_adduction_l	hip_rotation_l	knee_angle_l	socket_flexion	socket_adduction	socket_rotation	socket_tx	socket_ty	socket_tz	foot_flex	lumbar_extension	lumbar_bending	lumbar_rotation
      0.94166667	      2.74777143	     -3.61029797	     -3.26216048	      0.40757087	      1.03428796	      0.33982974	      1.55902106	      9.20216261	      1.23178821	    -16.85049363	     10.59490663	    -10.96305285	      3.93443580	     12.36010428	    -11.08297838	     -3.43179939	    -69.26532421	    -10.60154250	      1.02243877	     16.30696125	      0.00000000	      0.03480801	      0.00000000	     -0.22346103	    -10.45793020	      2.78117715	      5.11572312
      0.94583333	      2.69898437	     -3.33316827	     -3.42554542	      0.41249697	      1.03532852	      0.34039988	      0.99269267	      8.88210189	      1.43220400	    -16.21503009	     10.45535289	    -10.47513294	      3.98922500	     13.06355404	    -10.79543959	     -3.38744551	    -68.99705874	    -10.62270547	      1.01493687	     16.31248204	      0.00000000	      0.03551021	      0.00000000	     -0.23218803	    -10.38541080	      2.36075876	      5.39767118
      0.95000000	      2.70962637	     -3.30485447	     -3.70721325	      0.41692051	      1.03608746	      0.34090893	      0.66128299	      8.79628461	      1.35779158	    -16.16697350	     10.44862095	    -10.42249396	      3.99859110	     13.62686130	    -10.78381685	     -3.39296910	    -68.67741623	    -10.66847315	      1.02969023	     16.31909544	      0.00000000	      0.03532386	      0.00000000	     -0.20401366	    -10.52240029	      2.32627297	      5.43779173
      0.95416667	      2.63987265	     -3.03863634	     -3.87804432	      0.42188130	      1.03700815	      0.34149476	      0.11920507	      8.48431115	      1.54505995	    -15.53410678	     10.30170770	     -9.91231780	      4.05922402	     14.28550517	    -10.50082978	     -3.33971864	    -68.26813220	    -10.67315612	      1.04815351	     16.33185046	      0.00000000	      0.03573018	      0.00000000	     -0.21097542	    -10.43852110	      1.92760484	      5.75107079
      0.95833333	      2.65118572	     -3.02017977	     -4.15378218	      0.42623150	      1.03769679	      0.34196106	     -0.19845187	      8.40150551	      1.47151725	    -15.49387974	     10.29381119	     -9.85727449	      4.07051085	     14.84681812	    -10.49513915	     -3.33976755	    -67.90840035	    -10.71615828	      1.03898838	     16.32459491	      0.00000000	      0.03561597	      0.00000000	     -0.18174202	    -10.58123588	      1.89375017	      5.79555690
      0.96250000	      2.56103945	     -2.78222001	     -4.32492998	      0.43122981	      1.03848322	      0.34251325	     -0.71245128	      8.11435762	      1.64799509	    -14.87387103	     10.15320562	     -9.33609726	      4.14061578	     15.45022418	    -10.23053293	     -3.27142127	    -67.33783082	    -10.69251072	      1.06651025	     16.33432281	      0.00000000	      0.03567358	      0.00000000	     -0.19106098	    -10.46201435	      1.51965492	      6.12071673
      0.96666667	      2.57398811	     -2.76936382	     -4.59220160	      0.43550576	      1.03909106	      0.34296013	     -1.01933206	      8.03385814	      1.57380117	    -14.84623065	     10.14692844	     -9.28550132	      4.15298327	     16.01025821	    -10.23056612	     -3.27194027	    -66.94438002	    -10.74455568	      1.04244034	     16.31460999	      0.00000000	      0.03563083	      0.00000000	     -0.16009093	    -10.61440581	      1.50004238	      6.16454285
      0.97083333	      2.45864389	     -2.54480751	     -4.78198793	      0.44063805	      1.03974517	      0.34348900	     -1.51733212	      7.75089919	      1.73779584	    -14.21144412	     10.00131727	     -8.71687133	      4.24672519	     16.53475946	     -9.96230507	     -3.18999867	    -66.19242562	    -10.69304147	      1.10629488	     16.29045870	      0.00000000	      0.03524319	      0.00000000	     -0.18037272	    -10.45042324	      1.15712454	      6.53058844
      0.97500000	      2.47399124	     -2.54181051	     -5.02959966	      0.44481419	      1.04027295	      0.34390590	     -1.81255658	      7.68107634	      1.66829096	    -14.20094112	      9.99841700	     -8.67036559	      4.26133363	     17.09748461	     -9.97372724	     -3.18622748	    -65.76277350	    -10.74659761	      1.06083625	     16.26046081	      0.00000000	      0.03530012	      0.00000000	     -0.14712168	    -10.61838871	      1.13571868	      6.57053340
      0.97916667	      2.64070509	     -2.16608909	     -5.27776717	      0.44998997	      1.04118946	      0.34413479	     -2.36586603	      7.08034220	      1.14168921	    -14.00062030	      9.98708847	     -7.01036371	      5.90818087	     16.93588438	     -9.28926713	     -2.81621576	    -64.20810616	    -10.48845013	      1.53765237	     15.73964609	      0.00000000	      0.03299016	      0.00000000	     -0.21048875	    -10.77149315	      0.60525395	      7.18075251
      0.98333333	      2.65088337	     -2.16934856	     -5.49730943	      0.45417425	      1.04159290	      0.34454201	     -2.66593294	      7.02010274	      1.09957858	    -13.96760589	      9.98794098	     -6.98329088	      5.91658832	     17.52033527	     -9.31770884	     -2.79659467	    -63.80189742	    -10.57815756	      1.46456567	     15.74381471	      0.00000000	      0.03323435	      0.00000000	     -0.17873104	    -10.92515761	      0.58411691	      7.19543914
      0.98750000	      2.46888652	     -2.06957883	     -5.68682473	      0.45923422	      1.04192196	      0.34508625	     -3.08685314	      6.89009626	      1.32586216	    -13.34243376	      9.71833942	     -6.65365625	      6.04651181	     18.02884288	     -9.20832533	     -2.71147098	    -62.85554819	    -10.47908867	      1.50070674	     15.73729241	      0.00000000	      0.03244223	      0.00000000	     -0.19878164	    -10.70801492	      0.41815675	      7.45908762
